<?xml version="1.0" encoding="UTF-8"?> <!-- Generator: Adobe Illustrator 24.1.0, SVG Export Plug-In . SVG Version: 6.00 Build 0) --> <svg xmlns="http://www.w3.org/2000/svg" xmlns:xlink="http://www.w3.org/1999/xlink" version="1.1" id="Ebene_1" x="0px" y="0px" width="1024px" height="550px" viewBox="0 0 1024 550" style="enable-background:new 0 0 1024 550;" xml:space="preserve"> <style type="text/css"> .st0{fill:#F0872D;} .st1{fill:#1C3550;} </style> <g> <polygon class="st0" points="144.5,426.5 219.3,2.4 98.1,2.4 2,547.6 365.5,547.6 386.9,426.5 "></polygon> <path class="st1" d="M956.7,353.6c0,0-18.9-47.2-47-68.5c34.5-30,59.7-70.9,67.6-116.1c16.2-92-45.2-166.7-137.1-166.7l-227,0h-0.1 l-37.4,212h-0.1H424.2l37.4-212H340.5L271,396.2h121.2l10.7-60.6h151.3h0.1l-37.4,212h121.2l37.4-212h90.9 c64.7,0,84.1,58.1,84.1,58.1l50.3,154H1022L956.7,353.6z M696.9,214.4l16-90.9h106l0,0c25.2,0,41.9,20.4,37.5,45.5 c-4.4,25.2-28.4,45.3-53.6,45.3L696.9,214.4z"></path> </g> </svg> 